<mxfile host="app.diagrams.net" modified="2024-05-12T15:06:31.307Z" agent="Mozilla/5.0 (Windows NT 10.0; Win64; x64) AppleWebKit/537.36 (KHTML, like Gecko) Chrome/124.0.0.0 Safari/537.36" etag="nsyOEtjLeDJz9CqKgT7C" version="24.0.7" type="device">
  <diagram name="Page-1" id="ZmZPS8lJiWj_zAppm8Pf">
    <mxGraphModel dx="1050" dy="557" grid="1" gridSize="10" guides="1" tooltips="1" connect="1" arrows="1" fold="1" page="1" pageScale="1" pageWidth="850" pageHeight="1100" math="0" shadow="0">
      <root>
        <mxCell id="0" />
        <mxCell id="1" parent="0" />
        <mxCell id="Hmg1zCZkg1x5hI_3i4v_-1" value="Pelanggan" style="rounded=0;whiteSpace=wrap;html=1;" vertex="1" parent="1">
          <mxGeometry x="80" y="150" width="160" height="70" as="geometry" />
        </mxCell>
        <mxCell id="Hmg1zCZkg1x5hI_3i4v_-2" value="Pemandu Wisata" style="rounded=0;whiteSpace=wrap;html=1;" vertex="1" parent="1">
          <mxGeometry x="550" y="150" width="160" height="70" as="geometry" />
        </mxCell>
        <mxCell id="Hmg1zCZkg1x5hI_3i4v_-3" value="Perusahaan Pariwisata" style="rounded=0;whiteSpace=wrap;html=1;" vertex="1" parent="1">
          <mxGeometry x="320" y="310" width="160" height="70" as="geometry" />
        </mxCell>
        <mxCell id="Hmg1zCZkg1x5hI_3i4v_-4" value="Proses" style="ellipse;whiteSpace=wrap;html=1;aspect=fixed;" vertex="1" parent="1">
          <mxGeometry x="350" y="140" width="100" height="100" as="geometry" />
        </mxCell>
        <mxCell id="Hmg1zCZkg1x5hI_3i4v_-5" value="" style="endArrow=classic;html=1;rounded=0;entryX=0.072;entryY=0.202;entryDx=0;entryDy=0;entryPerimeter=0;" edge="1" parent="1" target="Hmg1zCZkg1x5hI_3i4v_-4">
          <mxGeometry width="50" height="50" relative="1" as="geometry">
            <mxPoint x="240" y="160" as="sourcePoint" />
            <mxPoint x="290" y="140" as="targetPoint" />
            <Array as="points">
              <mxPoint x="260" y="160" />
              <mxPoint x="320" y="160" />
            </Array>
          </mxGeometry>
        </mxCell>
        <mxCell id="Hmg1zCZkg1x5hI_3i4v_-6" value="" style="endArrow=classic;html=1;rounded=0;entryX=0.01;entryY=0.134;entryDx=0;entryDy=0;entryPerimeter=0;" edge="1" parent="1" target="Hmg1zCZkg1x5hI_3i4v_-2">
          <mxGeometry width="50" height="50" relative="1" as="geometry">
            <mxPoint x="440" y="160" as="sourcePoint" />
            <mxPoint x="490" y="110" as="targetPoint" />
          </mxGeometry>
        </mxCell>
        <mxCell id="Hmg1zCZkg1x5hI_3i4v_-7" value="" style="endArrow=classic;html=1;rounded=0;entryX=0.984;entryY=0.618;entryDx=0;entryDy=0;entryPerimeter=0;" edge="1" parent="1" target="Hmg1zCZkg1x5hI_3i4v_-4">
          <mxGeometry width="50" height="50" relative="1" as="geometry">
            <mxPoint x="550" y="200" as="sourcePoint" />
            <mxPoint x="600" y="150" as="targetPoint" />
          </mxGeometry>
        </mxCell>
        <mxCell id="Hmg1zCZkg1x5hI_3i4v_-8" value="" style="endArrow=classic;html=1;rounded=0;entryX=1;entryY=0.75;entryDx=0;entryDy=0;" edge="1" parent="1">
          <mxGeometry width="50" height="50" relative="1" as="geometry">
            <mxPoint x="351" y="205" as="sourcePoint" />
            <mxPoint x="241" y="207.5" as="targetPoint" />
          </mxGeometry>
        </mxCell>
        <mxCell id="Hmg1zCZkg1x5hI_3i4v_-9" value="" style="endArrow=classic;html=1;rounded=0;entryX=0.5;entryY=0;entryDx=0;entryDy=0;" edge="1" parent="1">
          <mxGeometry width="50" height="50" relative="1" as="geometry">
            <mxPoint x="402" y="240" as="sourcePoint" />
            <mxPoint x="402" y="310" as="targetPoint" />
          </mxGeometry>
        </mxCell>
        <mxCell id="Hmg1zCZkg1x5hI_3i4v_-10" value="Data_Pelanggan" style="text;html=1;align=center;verticalAlign=middle;resizable=0;points=[];autosize=1;strokeColor=none;fillColor=none;" vertex="1" parent="1">
          <mxGeometry x="240" y="110" width="110" height="30" as="geometry" />
        </mxCell>
        <mxCell id="Hmg1zCZkg1x5hI_3i4v_-11" value="Data_Pelanggan" style="text;html=1;align=center;verticalAlign=middle;resizable=0;points=[];autosize=1;strokeColor=none;fillColor=none;" vertex="1" parent="1">
          <mxGeometry x="440" y="110" width="110" height="30" as="geometry" />
        </mxCell>
        <mxCell id="Hmg1zCZkg1x5hI_3i4v_-12" value="Data_Pesan" style="text;html=1;align=center;verticalAlign=middle;resizable=0;points=[];autosize=1;strokeColor=none;fillColor=none;" vertex="1" parent="1">
          <mxGeometry x="250" y="130" width="90" height="30" as="geometry" />
        </mxCell>
        <mxCell id="Hmg1zCZkg1x5hI_3i4v_-13" value="Data_Pesan" style="text;html=1;align=center;verticalAlign=middle;resizable=0;points=[];autosize=1;strokeColor=none;fillColor=none;" vertex="1" parent="1">
          <mxGeometry x="450" y="130" width="90" height="30" as="geometry" />
        </mxCell>
        <mxCell id="Hmg1zCZkg1x5hI_3i4v_-14" value="Data_Pemesanan" style="text;html=1;align=center;verticalAlign=middle;resizable=0;points=[];autosize=1;strokeColor=none;fillColor=none;" vertex="1" parent="1">
          <mxGeometry x="240" y="208" width="120" height="30" as="geometry" />
        </mxCell>
        <mxCell id="Hmg1zCZkg1x5hI_3i4v_-15" value="Data_Pemesanan" style="text;html=1;align=center;verticalAlign=middle;resizable=0;points=[];autosize=1;strokeColor=none;fillColor=none;" vertex="1" parent="1">
          <mxGeometry x="440" y="210" width="120" height="30" as="geometry" />
        </mxCell>
        <mxCell id="Hmg1zCZkg1x5hI_3i4v_-16" value="Laporan_Pemesanan" style="text;html=1;align=center;verticalAlign=middle;resizable=0;points=[];autosize=1;strokeColor=none;fillColor=none;" vertex="1" parent="1">
          <mxGeometry x="400" y="258" width="140" height="30" as="geometry" />
        </mxCell>
      </root>
    </mxGraphModel>
  </diagram>
</mxfile>
